<svg width="130" height="135" viewBox="0 0 130 135" fill="none" xmlns="http://www.w3.org/2000/svg">
<circle cx="65" cy="66" r="65" fill="#34A0E1"/>
<path d="M104.921 78.3509C105.3 77.4366 105.862 76.7137 106.606 76.1821C107.35 75.6504 108.219 75.3505 109.211 75.2824C110.208 75.2162 111.272 75.4172 112.403 75.8856C113.538 76.356 114.435 76.9671 115.094 77.7189C115.752 78.4708 116.156 79.2978 116.307 80.2002C116.457 81.1025 116.343 82.0108 115.965 82.925C115.741 83.464 115.452 83.9387 115.096 84.3493C114.737 84.7648 114.327 85.1022 113.864 85.3615C113.407 85.6229 112.906 85.7904 112.363 85.8641C111.822 85.9446 111.257 85.9193 110.669 85.7883L111.207 84.4891C111.614 84.5676 112 84.5694 112.363 84.4945C112.725 84.4244 113.059 84.2921 113.365 84.0976C113.674 83.9098 113.944 83.6723 114.176 83.3849C114.412 83.0996 114.604 82.7789 114.752 82.4228C115.021 81.7732 115.099 81.115 114.986 80.4481C114.878 79.7833 114.567 79.1609 114.052 78.5811C113.539 78.008 112.816 77.5282 111.883 77.1415C110.954 76.7569 110.106 76.586 109.338 76.6288C108.569 76.6765 107.908 76.8963 107.357 77.2881C106.811 77.6818 106.403 78.2035 106.134 78.8531C105.986 79.2092 105.893 79.5708 105.854 79.9378C105.819 80.3069 105.842 80.666 105.923 81.0152C106.007 81.3712 106.152 81.7018 106.358 82.0071C106.562 82.3172 106.836 82.5884 107.179 82.8209L106.641 84.1201C106.128 83.7947 105.708 83.4123 105.383 82.9731C105.055 82.5387 104.82 82.0662 104.676 81.5557C104.537 81.0472 104.488 80.5194 104.529 79.9725C104.567 79.4303 104.698 78.8898 104.921 78.3509Z" fill="white"/>
<path d="M103.123 84.5922L110.397 89.4273L109.662 90.5334L106.5 88.4316L106.007 89.1733L107.43 93.8906L106.479 95.322L104.911 90.0588L99.1787 90.5259L100.13 89.0946L104.793 88.7416L105.459 87.7396L102.388 85.6983L103.123 84.5922Z" fill="white"/>
<path d="M97.1052 93.6216C97.5031 93.2389 97.9376 92.9656 98.4086 92.8016C98.8832 92.6414 99.3552 92.6138 99.8247 92.7187C100.294 92.8236 100.726 93.0806 101.119 93.4898C101.466 93.8502 101.674 94.2097 101.745 94.5684C101.819 94.9308 101.799 95.2896 101.685 95.6447C101.571 96.0071 101.402 96.3574 101.178 96.6957C100.951 97.0375 100.708 97.368 100.452 97.6871C100.116 98.1042 99.8422 98.4396 99.631 98.6933C99.416 98.9507 99.2848 99.1636 99.2373 99.3321C99.1861 99.5042 99.2345 99.6673 99.3825 99.8212L99.415 99.8549C99.8013 100.257 100.212 100.462 100.646 100.47C101.081 100.486 101.521 100.279 101.968 99.8494C102.426 99.4089 102.689 98.961 102.756 98.5055C102.828 98.0538 102.806 97.663 102.691 97.3329L103.928 96.7713C104.132 97.3131 104.199 97.8227 104.131 98.3002C104.059 98.7814 103.903 99.2204 103.663 99.6172C103.42 100.018 103.14 100.37 102.825 100.673C102.622 100.868 102.366 101.067 102.056 101.271C101.75 101.479 101.401 101.627 101.009 101.715C100.616 101.81 100.195 101.786 99.7449 101.641C99.2945 101.503 98.8292 101.184 98.349 100.685L94.3631 96.5408L95.3316 95.6093L96.1547 96.4652L96.1998 96.4219C96.1336 96.2254 96.1017 95.9743 96.104 95.6686C96.1098 95.3666 96.1862 95.0366 96.3332 94.6785C96.48 94.3277 96.7373 93.9754 97.1052 93.6216ZM97.7928 94.6296C97.4099 94.9978 97.1593 95.3834 97.041 95.7863C96.9226 96.1892 96.9096 96.5738 97.0019 96.9403C97.0978 97.3105 97.2704 97.6252 97.5195 97.8842L98.3752 98.7738C98.3695 98.6853 98.4163 98.5536 98.5155 98.3787C98.6145 98.2112 98.7397 98.0258 98.891 97.8225C99.0385 97.6228 99.1859 97.4304 99.3332 97.2454C99.4841 97.0642 99.6048 96.9192 99.6953 96.8104C99.9143 96.5347 100.097 96.2547 100.242 95.9702C100.391 95.6894 100.465 95.4128 100.463 95.1402C100.457 94.8711 100.335 94.6128 100.097 94.365C99.7752 94.0309 99.4076 93.8967 98.9938 93.9623C98.5798 94.0353 98.1795 94.2577 97.7928 94.6296Z" fill="white"/>
<path d="M91.6209 110.003L87.0926 102.534L88.2416 101.838L92.7699 109.306L91.6209 110.003ZM89.8989 106.168L89.2508 105.099C89.4525 104.849 89.6595 104.608 89.8719 104.376C90.087 104.148 90.3227 103.929 90.579 103.719C90.8353 103.508 91.1326 103.301 91.4711 103.096C92.3173 102.583 93.1342 102.398 93.9218 102.542C94.7077 102.693 95.3751 103.226 95.9242 104.142L97.3743 106.533L96.2386 107.222L94.7885 104.83C94.5546 104.454 94.2907 104.185 93.997 104.022C93.7015 103.866 93.3926 103.804 93.0703 103.834C92.748 103.865 92.4309 103.975 92.1192 104.164C91.6337 104.459 91.222 104.769 90.8841 105.096C90.5417 105.425 90.2133 105.783 89.8989 106.168Z" fill="white"/>
<path d="M82.7065 105.175C83.2294 104.998 83.7389 104.935 84.2349 104.987C84.7325 105.044 85.1715 105.22 85.5516 105.515C85.9318 105.81 86.2129 106.226 86.3949 106.764C86.5552 107.237 86.5909 107.651 86.5019 108.006C86.4146 108.365 86.244 108.681 85.9899 108.954C85.7326 109.234 85.4307 109.479 85.0842 109.69C84.7327 109.902 84.3729 110.098 84.0048 110.278C83.5233 110.512 83.1329 110.699 82.8338 110.839C82.5298 110.98 82.3204 111.117 82.2057 111.25C82.0861 111.384 82.0605 111.552 82.129 111.754L82.144 111.798C82.3227 112.326 82.6068 112.686 82.9964 112.879C83.3827 113.078 83.8694 113.078 84.4565 112.88C85.0584 112.676 85.4869 112.382 85.7421 111.999C85.9989 111.621 86.1455 111.258 86.1818 110.91L87.5406 110.929C87.4939 111.505 87.338 111.995 87.0731 112.398C86.8032 112.803 86.4753 113.134 86.0894 113.391C85.6986 113.65 85.296 113.849 84.8816 113.989C84.6152 114.08 84.2985 114.151 83.9314 114.204C83.566 114.261 83.1871 114.247 82.7948 114.16C82.3991 114.079 82.0284 113.877 81.6827 113.555C81.3337 113.238 81.0482 112.752 80.8261 112.096L78.9827 106.649L80.2555 106.219L80.6362 107.343L80.6954 107.323C80.7192 107.117 80.7971 106.877 80.9293 106.601C81.0631 106.33 81.2727 106.064 81.5581 105.802C81.8402 105.548 82.223 105.338 82.7065 105.175ZM82.8998 106.379C82.3966 106.55 82.0057 106.792 81.7271 107.106C81.4486 107.42 81.2731 107.763 81.2007 108.134C81.13 108.51 81.1522 108.868 81.2674 109.208L81.6631 110.377C81.6957 110.295 81.7941 110.196 81.9582 110.08C82.1191 109.97 82.3113 109.856 82.5348 109.736C82.7533 109.618 82.9685 109.507 83.1805 109.402C83.3942 109.302 83.5651 109.222 83.6933 109.163C84.0088 109.006 84.2929 108.83 84.5457 108.635C84.8001 108.444 84.9844 108.225 85.0985 107.978C85.2077 107.732 85.2072 107.446 85.097 107.12C84.9484 106.681 84.6729 106.403 84.2705 106.287C83.8648 106.176 83.4079 106.207 82.8998 106.379Z" fill="white"/>
<path d="M78.0196 115.422L78.1821 116.661L71.164 117.581L71.0015 116.342L73.8366 115.97L72.8637 108.549L74.1961 108.375L75.169 115.796L78.0196 115.422Z" fill="white"/>
<path d="M66.5035 115.349L64.0143 115.118C62.9973 115.028 62.2432 114.699 61.7521 114.131C61.2609 113.562 61.0521 112.881 61.1258 112.088C61.174 111.569 61.3397 111.108 61.6229 110.706C61.9005 110.308 62.2844 110.003 62.7748 109.793C63.2646 109.587 63.8492 109.516 64.5286 109.579L68.1692 109.917L67.3615 118.614L66.0391 118.491L66.7312 111.039L64.413 110.824C63.8892 110.775 63.446 110.872 63.0834 111.116C62.7151 111.364 62.5105 111.709 62.4696 112.15C62.4267 112.611 62.5629 113.003 62.8782 113.325C63.1884 113.647 63.6056 113.83 64.1298 113.873L66.6191 114.104L66.5035 115.349Z" fill="white"/>
<path d="M54.6317 109.082L51.1411 117.089L44.8533 114.348L48.3438 106.341L49.5756 106.878L46.5846 113.739L50.4232 115.412L53.4142 108.552L54.6317 109.082Z" fill="white"/>
<path d="M47.6592 103.383L40.5868 113.077L39.5517 112.322L40.3713 111.198L40.2451 111.106C40.0761 111.17 39.8511 111.244 39.5699 111.329C39.2856 111.419 38.9536 111.441 38.5738 111.396C38.194 111.351 37.7748 111.161 37.3161 110.826C36.7229 110.393 36.3101 109.863 36.0778 109.236C35.8425 108.613 35.7981 107.936 35.9447 107.205C36.084 106.475 36.4238 105.74 36.9641 104.999C37.5074 104.254 38.1063 103.699 38.7609 103.332C39.4124 102.969 40.0723 102.802 40.7404 102.832C41.4086 102.862 42.0372 103.091 42.6263 103.521C43.0765 103.85 43.3831 104.189 43.5461 104.54C43.706 104.895 43.789 105.224 43.795 105.525C43.798 105.83 43.7935 106.075 43.7813 106.259L43.8697 106.324L46.5863 102.6L47.6592 103.383ZM42.056 104.594C41.6058 104.266 41.1417 104.111 40.6638 104.13C40.1828 104.153 39.7177 104.313 39.2685 104.611C38.8151 104.905 38.4057 105.303 38.0404 105.804C37.6782 106.3 37.427 106.804 37.2869 107.314C37.1467 107.824 37.1422 108.308 37.2732 108.764C37.4001 109.218 37.6928 109.612 38.1515 109.946C38.5933 110.269 39.0449 110.427 39.5063 110.422C39.9647 110.421 40.4175 110.278 40.8648 109.992C41.3048 109.707 41.7182 109.299 42.105 108.769C42.4918 108.239 42.7562 107.713 42.8983 107.191C43.0373 106.674 43.0418 106.19 42.9119 105.741C42.7747 105.293 42.4894 104.911 42.056 104.594Z" fill="white"/>
<path d="M36.1763 99.0455C36.5412 99.4598 36.7952 99.9058 36.9384 100.384C37.0776 100.865 37.0846 101.338 36.9592 101.802C36.8338 102.266 36.5581 102.686 36.1321 103.061C35.7569 103.392 35.3885 103.584 35.0271 103.639C34.6618 103.697 34.3043 103.661 33.9545 103.532C33.5974 103.403 33.2548 103.218 32.9267 102.98C32.5952 102.738 32.2756 102.481 31.9681 102.211C31.5661 101.857 31.243 101.569 30.9988 101.347C30.7511 101.121 30.5441 100.98 30.3779 100.925C30.2081 100.867 30.0432 100.908 29.8829 101.049L29.8477 101.08C29.4295 101.448 29.2067 101.849 29.1792 102.283C29.1443 102.716 29.3317 103.165 29.7414 103.63C30.1614 104.107 30.5974 104.39 31.0494 104.477C31.4975 104.568 31.889 104.564 32.2238 104.463L32.7306 105.724C32.1805 105.903 31.6684 105.948 31.1943 105.859C30.7168 105.766 30.285 105.591 29.8991 105.334C29.5097 105.073 29.1704 104.779 28.8812 104.451C28.6953 104.239 28.5073 103.975 28.3172 103.656C28.1231 103.342 27.9906 102.986 27.9198 102.591C27.8415 102.194 27.8848 101.775 28.0494 101.331C28.2067 100.887 28.5453 100.436 29.0651 99.9785L33.3801 96.1781L34.2682 97.1864L33.3771 97.9713L33.4184 98.0182C33.6176 97.9607 33.8699 97.9398 34.1752 97.9555C34.4766 97.9746 34.8029 98.0654 35.1543 98.2279C35.4983 98.3899 35.8389 98.6625 36.1763 99.0455ZM35.1392 99.6883C34.7881 99.2896 34.4138 99.0223 34.0165 98.8864C33.6192 98.7506 33.2355 98.7207 32.8653 98.7969C32.4913 98.8765 32.1694 99.035 31.8997 99.2726L30.9734 100.088C31.0621 100.087 31.1916 100.139 31.3619 100.246C31.525 100.352 31.7047 100.485 31.9012 100.645C32.0943 100.802 32.28 100.957 32.4584 101.113C32.6328 101.271 32.7724 101.398 32.877 101.493C33.1429 101.724 33.4147 101.919 33.6925 102.076C33.9664 102.238 34.2396 102.323 34.5121 102.333C34.7811 102.339 35.0446 102.229 35.3025 102.001C35.6504 101.695 35.8006 101.334 35.7532 100.917C35.6984 100.501 35.4938 100.091 35.1392 99.6883Z" fill="white"/>
<path d="M28.6086 94.4004L20.668 93.9795L19.921 92.6249L27.5695 88.407L28.2108 89.57L22.3001 92.8297L30.233 93.2369L30.9876 94.6051L23.3392 98.823L22.6978 97.66L28.6086 94.4004ZM20.724 96.2326C21.061 96.8437 21.1642 97.4352 21.0334 98.0069C20.8955 98.5766 20.5507 99.0136 19.9988 99.318L19.3952 98.2234C19.6916 98.0599 19.8843 97.8377 19.9732 97.5567C20.0621 97.2757 20.0273 96.9915 19.8689 96.7042C19.7104 96.4169 19.4886 96.2358 19.2035 96.1611C18.9185 96.0863 18.6277 96.1307 18.3312 96.2942L17.7276 95.1996C18.2795 94.8953 18.8343 94.8391 19.3922 95.031C19.943 95.2209 20.387 95.6215 20.724 96.2326Z" fill="white"/>
<path d="M24.9596 83.2497C25.1845 84.0304 25.194 84.7594 24.988 85.4367C24.7755 86.1104 24.3887 86.696 23.8274 87.1938C23.2647 87.6865 22.5655 88.0532 21.7297 88.294C20.8739 88.5405 20.0752 88.5998 19.3338 88.472C18.5873 88.3455 17.9475 88.0529 17.4142 87.594C16.8795 87.1301 16.5033 86.5203 16.2856 85.7646C16.1155 85.174 16.0727 84.6118 16.1574 84.0779C16.2357 83.5405 16.4292 83.0647 16.7381 82.6505C17.0456 82.2313 17.4519 81.911 17.9573 81.6895L18.3292 82.9808C18.0927 83.1194 17.8864 83.3062 17.7102 83.5412C17.534 83.7763 17.4187 84.0534 17.3643 84.3726C17.3034 84.6882 17.3278 85.0362 17.4374 85.4166C17.5815 85.9171 17.8378 86.3175 18.2062 86.6179C18.5746 86.9183 19.0268 87.1051 19.5628 87.1783C20.0938 87.253 20.6771 87.1988 21.3127 87.0157C21.9583 86.8297 22.4943 86.5642 22.9207 86.2192C23.342 85.8756 23.6313 85.4779 23.7884 85.0261C23.9441 84.5693 23.9491 84.0882 23.8035 83.5827C23.6579 83.0772 23.4031 82.6818 23.039 82.3964C22.6699 82.1125 22.2411 81.9786 21.7525 81.9947L21.3806 80.7034C21.8962 80.6307 22.3935 80.6826 22.8725 80.859C23.3501 81.0304 23.7743 81.3174 24.145 81.7201C24.5093 82.1192 24.7808 82.6291 24.9596 83.2497Z" fill="white"/>
<path d="M23.5313 54.1933C23.1595 55.1104 22.6034 55.8376 21.863 56.3748C21.1225 56.912 20.2564 57.2184 19.2647 57.2941C18.2682 57.3678 17.2028 57.1747 16.0685 56.7149C14.9294 56.2531 14.0279 55.6488 13.364 54.9019C12.7001 54.1551 12.2895 53.3311 12.1322 52.4299C11.9749 51.5287 12.0821 50.6196 12.4539 49.7025C12.6731 49.1619 12.9591 48.685 13.3122 48.2717C13.6671 47.8536 14.0749 47.5131 14.5355 47.2502C14.9913 46.9854 15.4907 46.8141 16.0337 46.7364C16.5737 46.6519 17.1385 46.6729 17.7279 46.7994L17.1995 48.1026C16.7917 48.0272 16.4063 48.0283 16.0433 48.1059C15.6822 48.1787 15.3493 48.3136 15.0447 48.5104C14.7372 48.7005 14.4687 48.9401 14.2391 49.2292C14.0047 49.5163 13.815 49.8384 13.6702 50.1956C13.4061 50.8472 13.3329 51.506 13.4507 52.172C13.5637 52.836 13.88 53.456 14.3995 54.0319C14.9163 54.6011 15.6428 55.0755 16.5792 55.4551C17.5108 55.8328 18.3602 55.9973 19.1274 55.9486C19.8965 55.8951 20.5552 55.6704 21.1035 55.2745C21.647 54.8766 22.0508 54.3518 22.315 53.7002C22.4598 53.3431 22.5505 52.9808 22.587 52.6134C22.6187 52.2441 22.5928 51.8852 22.5093 51.5366C22.4229 51.1812 22.2755 50.8517 22.0671 50.548C21.8606 50.2395 21.5847 49.9703 21.2395 49.7405L21.7679 48.4372C22.2838 48.7588 22.7061 49.138 23.0349 49.5747C23.3656 50.0066 23.6047 50.4773 23.7523 50.9867C23.895 51.4942 23.9481 52.0216 23.9117 52.5688C23.8773 53.1112 23.7505 53.6527 23.5313 54.1933Z" fill="white"/>
<path d="M25.304 47.8463L18.0128 43.0372L18.744 41.9285L21.9136 44.0191L22.4039 43.2756L20.9636 38.5633L21.9099 37.1286L23.496 42.3861L29.227 41.8985L28.2806 43.3333L23.6195 43.7029L22.957 44.7073L26.0353 46.7376L25.304 47.8463Z" fill="white"/>
<path d="M31.1271 38.9567C30.7315 39.3418 30.2986 39.6176 29.8286 39.7843C29.3549 39.9473 28.8831 39.9777 28.413 39.8756C27.9429 39.7734 27.5099 39.5189 27.114 39.1121C26.7653 38.7537 26.5547 38.3954 26.4822 38.0372C26.4061 37.6752 26.4239 37.3163 26.5356 36.9606C26.6473 36.5974 26.8142 36.2461 27.0361 35.9066C27.2618 35.5635 27.502 35.2316 27.7568 34.9109C28.0903 34.4919 28.362 34.1549 28.5717 33.8999C28.7851 33.6413 28.9151 33.4276 28.9616 33.2588C29.0118 33.0864 28.9625 32.9237 28.8136 32.7706L28.7809 32.737C28.3922 32.3376 27.9806 32.135 27.5461 32.1291C27.1116 32.1158 26.6723 32.3253 26.2281 32.7575C25.7728 33.2007 25.5125 33.6502 25.4474 34.106C25.3786 34.5581 25.4028 34.9489 25.5198 35.2783L24.2856 35.8471C24.0793 35.3065 24.0089 34.7973 24.0743 34.3194C24.1435 33.8378 24.2968 33.3979 24.5343 32.9997C24.7755 32.5978 25.0528 32.2443 25.3664 31.9392C25.5679 31.743 25.823 31.5421 26.1315 31.3364C26.4363 31.1269 26.7846 30.9769 27.1763 30.8865C27.568 30.7887 27.9894 30.811 28.4405 30.9534C28.8917 31.0885 29.3589 31.4042 29.842 31.9007L33.8521 36.0215L32.8891 36.9586L32.0609 36.1076L32.0161 36.1512C32.0834 36.3473 32.1169 36.5982 32.1164 36.9039C32.1123 37.2059 32.0378 37.5364 31.8929 37.8953C31.7482 38.247 31.4929 38.6008 31.1271 38.9567ZM30.4336 37.9528C30.8143 37.5823 31.0627 37.1953 31.1787 36.7917C31.2947 36.3881 31.3054 36.0034 31.211 35.6375C31.1129 35.2678 30.9385 34.9542 30.6879 34.6967L29.827 33.812C29.8332 33.9005 29.7872 34.0325 29.689 34.2079C29.591 34.376 29.4669 34.5622 29.3168 34.7664C29.1704 34.967 29.0241 35.1602 28.878 35.3461C28.7282 35.5282 28.6083 35.6739 28.5184 35.7831C28.301 36.0601 28.1204 36.3413 27.9766 36.6266C27.8291 36.9082 27.7572 37.1853 27.7608 37.4579C27.7682 37.7269 27.8918 37.9845 28.1315 38.2309C28.4548 38.5631 28.8232 38.6952 29.2366 38.6271C29.6502 38.5517 30.0492 38.327 30.4336 37.9528Z" fill="white"/>
<path d="M36.4363 22.5476L41.0279 29.9777L39.8848 30.6841L35.2932 23.254L36.4363 22.5476ZM38.1908 26.3676L38.8479 27.4309C38.6484 27.6828 38.4435 27.9257 38.233 28.1599C38.0199 28.3896 37.786 28.6106 37.5316 28.823C37.2771 29.0353 36.9815 29.2456 36.6447 29.4536C35.8029 29.9739 34.9876 30.1654 34.1988 30.0284C33.4117 29.8842 32.7398 29.3566 32.1829 28.4455L30.7126 26.0663L31.8424 25.3681L33.3127 27.7474C33.5499 28.1212 33.816 28.3884 34.1111 28.5489C34.4079 28.7022 34.7173 28.762 35.0394 28.7283C35.3614 28.6946 35.6775 28.582 35.9876 28.3903C36.4706 28.0919 36.8796 27.7779 37.2147 27.4483C37.5543 27.116 37.8796 26.7558 38.1908 26.3676Z" fill="white"/>
<path d="M45.4589 27.2186C44.9371 27.3988 44.428 27.4643 43.9317 27.4152C43.4337 27.3613 42.9937 27.1881 42.6117 26.8956C42.2298 26.6032 41.9462 26.1887 41.7609 25.6521C41.5978 25.1795 41.5596 24.7656 41.6464 24.4106C41.7315 24.0506 41.9003 23.7334 42.1526 23.4589C42.4082 23.1778 42.7087 22.9308 43.0539 22.718C43.4041 22.5034 43.7627 22.3052 44.1298 22.1234C44.6098 21.8861 44.999 21.6966 45.2973 21.5551C45.6005 21.4119 45.809 21.2737 45.9229 21.1408C46.0417 21.0061 46.0662 20.8378 45.9966 20.636L45.9813 20.5917C45.7994 20.0649 45.5131 19.7064 45.1224 19.5162C44.7348 19.3194 44.2482 19.3221 43.6623 19.5243C43.0617 19.7317 42.6349 20.0278 42.3821 20.4126C42.1275 20.7925 41.9832 21.1564 41.949 21.5043L40.59 21.4941C40.6333 20.9171 40.7862 20.4263 41.0487 20.0216C41.3161 19.6152 41.642 19.2823 42.0263 19.0229C42.4155 18.7618 42.8169 18.5599 43.2305 18.4171C43.4963 18.3254 43.8126 18.252 44.1793 18.197C44.5444 18.1371 44.9233 18.1496 45.3162 18.2343C45.7124 18.3124 46.0843 18.5119 46.432 18.8327C46.7828 19.1468 47.0713 19.6313 47.2974 20.2861L49.1737 25.7213L47.9035 26.1598L47.516 25.0373L47.4569 25.0577C47.4344 25.2639 47.3579 25.5052 47.2274 25.7816C47.0953 26.0531 46.8873 26.3205 46.6035 26.5838C46.3229 26.8405 45.9414 27.0521 45.4589 27.2186ZM45.2583 26.0151C45.7605 25.8417 46.1499 25.5971 46.4265 25.2812C46.7032 24.9653 46.8766 24.6217 46.9468 24.2503C47.0152 23.874 46.9908 23.5161 46.8735 23.1764L46.4707 22.0095C46.4387 22.0922 46.3409 22.1921 46.1775 22.3092C46.0172 22.4196 45.8257 22.5353 45.603 22.6562C45.3852 22.7755 45.1707 22.8881 44.9593 22.9942C44.7463 23.0952 44.5758 23.1761 44.448 23.2368C44.1334 23.395 43.8504 23.5726 43.5988 23.7696C43.3456 23.9617 43.1626 24.1819 43.05 24.4302C42.9422 24.6768 42.9444 24.9625 43.0566 25.2874C43.2079 25.7256 43.4851 26.0018 43.8882 26.1161C44.2945 26.2238 44.7512 26.1901 45.2583 26.0151Z" fill="white"/>
<path d="M50.0285 16.9131L49.8586 15.6747L56.8711 14.7126L57.041 15.951L54.2081 16.3397L55.2254 23.7546L53.8941 23.9372L52.8768 16.5223L50.0285 16.9131Z" fill="white"/>
<path d="M61.5787 16.8924L64.0694 17.1085C65.0868 17.1915 65.8429 17.5159 66.3375 18.0816C66.8321 18.6473 67.045 19.327 66.9762 20.1209C66.9311 20.6398 66.7682 21.1014 66.4875 21.5058C66.2123 21.9054 65.8302 22.212 65.3412 22.4258C64.8526 22.6343 64.2684 22.7091 63.5887 22.6502L59.9461 22.3342L60.7009 13.6325L62.024 13.7473L61.3773 21.2036L63.6967 21.4048C64.2208 21.4503 64.6634 21.3502 65.0245 21.1044C65.3913 20.8539 65.5938 20.5081 65.632 20.0671C65.6721 19.6053 65.5335 19.2142 65.2162 18.8939C64.9042 18.5741 64.4859 18.3941 63.9613 18.3538L61.4707 18.1378L61.5787 16.8924Z" fill="white"/>
<path d="M73.5502 23.0519L76.9839 15.0207L83.291 17.7173L79.8574 25.7484L78.6218 25.2202L81.5641 18.3384L77.7137 16.6922L74.7714 23.574L73.5502 23.0519Z" fill="white"/>
<path d="M80.5204 28.6464L87.528 18.9051L88.5681 19.6533L87.756 20.7821L87.8828 20.8734C88.0514 20.8086 88.2759 20.7327 88.5566 20.6459C88.8402 20.5548 89.1721 20.5305 89.5522 20.5729C89.9323 20.6154 90.3527 20.8024 90.8136 21.1339C91.4097 21.5627 91.826 22.09 92.0625 22.7156C92.302 23.337 92.3509 24.0138 92.2092 24.7459C92.0747 25.4769 91.7398 26.2144 91.2045 26.9585C90.6662 27.7069 90.071 28.2667 89.4188 28.6381C88.7698 29.0053 88.111 29.1762 87.4427 29.151C86.7744 29.1257 86.1442 28.9002 85.5523 28.4744C85.0999 28.1489 84.7911 27.8113 84.6257 27.4614C84.4634 27.1072 84.3783 26.7797 84.3702 26.4787C84.3652 26.1736 84.3681 25.9287 84.379 25.744L84.2902 25.6802L81.5985 29.422L80.5204 28.6464ZM86.1154 27.3973C86.5678 27.7228 87.0329 27.8745 87.5106 27.8525C87.9915 27.8262 88.4555 27.6628 88.9027 27.3622C89.3542 27.0646 89.7609 26.6643 90.1228 26.1611C90.4817 25.6622 90.7295 25.1572 90.8663 24.646C91.003 24.1349 91.0043 23.6514 90.8702 23.1957C90.7404 22.743 90.445 22.3508 89.9842 22.0193C89.5402 21.7 89.0876 21.5443 88.6262 21.5525C88.1678 21.5564 87.716 21.7029 87.2706 21.992C86.8325 22.28 86.4218 22.6903 86.0386 23.223C85.6553 23.7558 85.3944 24.2835 85.2559 24.8061C85.1203 25.3245 85.119 25.808 85.2519 26.2565C85.3921 26.7038 85.6799 27.0841 86.1154 27.3973Z" fill="white"/>
<path d="M92.0788 32.9192C91.7114 32.5071 91.4547 32.0627 91.3086 31.5858C91.1665 31.1055 91.1567 30.6328 91.2792 30.1676C91.4018 29.7024 91.6749 29.281 92.0987 28.9031C92.4719 28.5704 92.839 28.3756 93.2001 28.3189C93.565 28.2586 93.9228 28.292 94.2733 28.4191C94.6312 28.5466 94.9749 28.7286 95.3044 28.9651C95.6374 29.2055 95.9585 29.46 96.2678 29.7285C96.6719 30.08 96.9967 30.3661 97.2423 30.5867C97.4913 30.8112 97.6991 30.9504 97.8657 31.0042C98.0358 31.0619 98.2006 31.0197 98.3599 30.8776L98.3949 30.8464C98.8109 30.4755 99.0313 30.0732 99.0562 29.6393C99.0884 29.2059 98.8982 28.7578 98.4858 28.2952C98.0629 27.821 97.6252 27.5413 97.1726 27.4564C96.724 27.368 96.3325 27.3751 95.9983 27.4776L95.4839 26.2198C96.0329 26.0373 96.5447 25.9891 97.0193 26.0753C97.4974 26.1654 97.9302 26.3378 98.3177 26.5924C98.7087 26.8509 99.0498 27.1434 99.3409 27.47C99.5281 27.6799 99.7177 27.9434 99.9098 28.2606C100.106 28.5743 100.24 28.9288 100.314 29.324C100.394 29.7197 100.354 30.1397 100.192 30.5842C100.037 31.029 99.7013 31.482 99.1842 31.943L94.8925 35.7696L93.9982 34.7666L94.8845 33.9764L94.8429 33.9297C94.6441 33.9884 94.3919 34.0108 94.0865 33.997C93.785 33.9798 93.4581 33.8909 93.1058 33.7306C92.7608 33.5706 92.4185 33.3002 92.0788 32.9192ZM93.112 32.2701C93.4656 32.6667 93.8414 32.9317 94.2395 33.0651C94.6377 33.1986 95.0216 33.2261 95.3913 33.1477C95.7649 33.0658 96.0858 32.9053 96.354 32.6662L97.2753 31.8447C97.1867 31.847 97.0568 31.7953 96.8858 31.6896C96.7222 31.5843 96.5416 31.4522 96.3441 31.2933C96.1501 31.1383 95.9635 30.9838 95.7842 30.8296C95.6087 30.672 95.4684 30.5459 95.3632 30.4514C95.0959 30.2221 94.8229 30.0294 94.5441 29.8733C94.2692 29.7136 93.9955 29.6297 93.723 29.6215C93.454 29.6171 93.1912 29.7293 92.9346 29.9581C92.5886 30.2666 92.4406 30.6288 92.4906 31.0449C92.5479 31.4613 92.755 31.8697 93.112 32.2701Z" fill="white"/>
<path d="M99.737 37.5706L107.68 37.9464L108.434 39.2966L100.81 43.5579L100.162 42.3986L106.054 39.1054L98.1192 38.7433L97.3568 37.3794L104.981 33.1181L105.629 34.2774L99.737 37.5706ZM107.611 35.6936C107.271 35.0844 107.164 34.4935 107.292 33.9211C107.426 33.3506 107.769 32.9116 108.319 32.6041L108.929 33.6953C108.633 33.8605 108.442 34.0838 108.354 34.3653C108.267 34.6468 108.303 34.9307 108.463 35.2172C108.624 35.5036 108.846 35.6834 109.132 35.7565C109.417 35.8296 109.708 35.7836 110.003 35.6184L110.613 36.7096C110.063 37.017 109.509 37.0764 108.95 36.8876C108.398 36.7008 107.952 36.3028 107.611 35.6936Z" fill="white"/>
<path d="M103.487 48.7549C103.256 47.9758 103.242 47.2468 103.443 46.5682C103.65 45.893 104.033 45.3046 104.591 44.8029C105.15 44.3062 105.847 43.9345 106.681 43.6879C107.535 43.4353 108.333 43.3703 109.075 43.4929C109.823 43.6141 110.465 43.9022 111.001 44.3573C111.539 44.8173 111.92 45.4244 112.143 46.1786C112.317 46.768 112.364 47.3299 112.283 47.8643C112.208 48.4023 112.018 48.8795 111.712 49.2959C111.408 49.7172 111.004 50.0404 110.5 50.2654L110.119 48.9769C110.354 48.8366 110.559 48.6483 110.734 48.412C110.908 48.1758 111.022 47.8978 111.074 47.5783C111.132 47.2622 111.106 46.9144 110.993 46.5348C110.846 46.0353 110.587 45.6367 110.216 45.339C109.846 45.0412 109.392 44.8576 108.855 44.7881C108.324 44.7172 107.741 44.7755 107.107 44.9631C106.462 45.1537 105.928 45.423 105.504 45.771C105.086 46.1176 104.799 46.5173 104.645 46.9702C104.493 47.4281 104.491 47.9092 104.64 48.4137C104.79 48.9181 105.047 49.3117 105.413 49.5945C105.784 49.8759 106.214 50.0067 106.703 49.9872L107.084 51.2758C106.568 51.3521 106.071 51.3037 105.591 51.1308C105.112 50.9628 104.686 50.6787 104.312 50.2787C103.945 49.8821 103.67 49.3742 103.487 48.7549Z" fill="white"/>
<circle cx="112" cy="62" r="2" fill="white"/>
<circle cx="17" cy="71" r="2" fill="white"/>
<g clip-path="url(#clip0_102_1857)">
<path d="M65 73L72 66L65 59M72 66L58 66" stroke="white" stroke-width="1.5" stroke-linecap="round" stroke-linejoin="round"/>
</g>
<defs>
<clipPath id="clip0_102_1857">
<rect width="24" height="24" fill="white" transform="translate(53 54)"/>
</clipPath>
</defs>
</svg>
